<mxfile host="Electron" modified="2023-10-07T11:14:55.689Z" agent="Mozilla/5.0 (Windows NT 10.0; Win64; x64) AppleWebKit/537.36 (KHTML, like Gecko) draw.io/21.4.0 Chrome/112.0.5615.204 Electron/24.5.1 Safari/537.36" etag="uIj6T1TSBGQlXVvpAQfr" version="21.4.0" type="device">
  <diagram name="Page-1" id="OGrILCW1BwHFNUCmoTAY">
    <mxGraphModel dx="863" dy="505" grid="1" gridSize="10" guides="1" tooltips="1" connect="1" arrows="1" fold="1" page="1" pageScale="1" pageWidth="850" pageHeight="1100" math="0" shadow="0">
      <root>
        <mxCell id="0" />
        <mxCell id="1" parent="0" />
        <mxCell id="-5rnDxVYeUoSk_xve0jJ-1" value="Bắt đầu" style="ellipse;whiteSpace=wrap;html=1;fontSize=13;" vertex="1" parent="1">
          <mxGeometry x="280" y="40" width="120" height="50" as="geometry" />
        </mxCell>
        <mxCell id="-5rnDxVYeUoSk_xve0jJ-2" value="Thông tin cá nhân" style="shape=parallelogram;perimeter=parallelogramPerimeter;whiteSpace=wrap;html=1;fixedSize=1;fontSize=13;" vertex="1" parent="1">
          <mxGeometry x="267.5" y="120" width="145" height="50" as="geometry" />
        </mxCell>
        <mxCell id="-5rnDxVYeUoSk_xve0jJ-3" value="" style="endArrow=classic;html=1;rounded=0;exitX=0.5;exitY=1;exitDx=0;exitDy=0;entryX=0.503;entryY=0;entryDx=0;entryDy=0;entryPerimeter=0;fontSize=13;" edge="1" parent="1" source="-5rnDxVYeUoSk_xve0jJ-1" target="-5rnDxVYeUoSk_xve0jJ-2">
          <mxGeometry width="50" height="50" relative="1" as="geometry">
            <mxPoint x="450" y="60" as="sourcePoint" />
            <mxPoint x="343" y="110" as="targetPoint" />
          </mxGeometry>
        </mxCell>
        <mxCell id="-5rnDxVYeUoSk_xve0jJ-4" value="Kiểm tra thông tin&amp;nbsp;&lt;br style=&quot;border-color: var(--border-color);&quot;&gt;có hợp lệ" style="rhombus;whiteSpace=wrap;html=1;fontSize=13;" vertex="1" parent="1">
          <mxGeometry x="260" y="200" width="160" height="80" as="geometry" />
        </mxCell>
        <mxCell id="-5rnDxVYeUoSk_xve0jJ-6" value="" style="endArrow=classic;html=1;rounded=0;exitX=0.5;exitY=1;exitDx=0;exitDy=0;entryX=0.5;entryY=0;entryDx=0;entryDy=0;fontSize=13;" edge="1" parent="1" source="-5rnDxVYeUoSk_xve0jJ-2" target="-5rnDxVYeUoSk_xve0jJ-4">
          <mxGeometry width="50" height="50" relative="1" as="geometry">
            <mxPoint x="470" y="190" as="sourcePoint" />
            <mxPoint x="520" y="140" as="targetPoint" />
          </mxGeometry>
        </mxCell>
        <mxCell id="-5rnDxVYeUoSk_xve0jJ-7" value="Tạo tài khoản thành công" style="rounded=0;whiteSpace=wrap;html=1;fontSize=13;" vertex="1" parent="1">
          <mxGeometry x="120" y="280" width="100" height="50" as="geometry" />
        </mxCell>
        <mxCell id="-5rnDxVYeUoSk_xve0jJ-8" value="" style="endArrow=classic;html=1;rounded=0;entryX=0.5;entryY=0;entryDx=0;entryDy=0;exitX=0;exitY=0.5;exitDx=0;exitDy=0;fontSize=13;" edge="1" parent="1" source="-5rnDxVYeUoSk_xve0jJ-4" target="-5rnDxVYeUoSk_xve0jJ-7">
          <mxGeometry width="50" height="50" relative="1" as="geometry">
            <mxPoint x="270" y="250" as="sourcePoint" />
            <mxPoint x="130" y="260" as="targetPoint" />
            <Array as="points">
              <mxPoint x="170" y="240" />
            </Array>
          </mxGeometry>
        </mxCell>
        <mxCell id="-5rnDxVYeUoSk_xve0jJ-9" value="Đúng" style="text;html=1;strokeColor=none;fillColor=none;align=center;verticalAlign=middle;whiteSpace=wrap;rounded=0;fontSize=13;" vertex="1" parent="1">
          <mxGeometry x="200" y="200" width="60" height="30" as="geometry" />
        </mxCell>
        <mxCell id="-5rnDxVYeUoSk_xve0jJ-10" value="Sai" style="text;html=1;strokeColor=none;fillColor=none;align=center;verticalAlign=middle;whiteSpace=wrap;rounded=0;fontSize=13;" vertex="1" parent="1">
          <mxGeometry x="430" y="200" width="60" height="30" as="geometry" />
        </mxCell>
        <mxCell id="-5rnDxVYeUoSk_xve0jJ-13" value="Thông báo thông&lt;br&gt;tin không hợp lệ" style="rounded=0;whiteSpace=wrap;html=1;fontSize=13;" vertex="1" parent="1">
          <mxGeometry x="470" y="320" width="110" height="60" as="geometry" />
        </mxCell>
        <mxCell id="-5rnDxVYeUoSk_xve0jJ-15" value="" style="ellipse;whiteSpace=wrap;html=1;aspect=fixed;fontSize=13;" vertex="1" parent="1">
          <mxGeometry x="316.25" y="440" width="40" height="40" as="geometry" />
        </mxCell>
        <mxCell id="-5rnDxVYeUoSk_xve0jJ-18" value="Kết thúc" style="ellipse;whiteSpace=wrap;html=1;fontSize=13;" vertex="1" parent="1">
          <mxGeometry x="276.25" y="525" width="120" height="50" as="geometry" />
        </mxCell>
        <mxCell id="-5rnDxVYeUoSk_xve0jJ-19" value="" style="endArrow=classic;html=1;rounded=0;exitX=0.5;exitY=1;exitDx=0;exitDy=0;entryX=0.5;entryY=0;entryDx=0;entryDy=0;fontSize=13;" edge="1" parent="1" source="-5rnDxVYeUoSk_xve0jJ-15" target="-5rnDxVYeUoSk_xve0jJ-18">
          <mxGeometry width="50" height="50" relative="1" as="geometry">
            <mxPoint x="470" y="690" as="sourcePoint" />
            <mxPoint x="520" y="640" as="targetPoint" />
          </mxGeometry>
        </mxCell>
        <mxCell id="-5rnDxVYeUoSk_xve0jJ-21" value="" style="endArrow=classic;html=1;rounded=0;entryX=0;entryY=0.5;entryDx=0;entryDy=0;fontSize=13;" edge="1" parent="1" target="-5rnDxVYeUoSk_xve0jJ-15">
          <mxGeometry width="50" height="50" relative="1" as="geometry">
            <mxPoint x="170" y="420" as="sourcePoint" />
            <mxPoint x="250" y="350" as="targetPoint" />
            <Array as="points">
              <mxPoint x="170" y="460" />
            </Array>
          </mxGeometry>
        </mxCell>
        <mxCell id="-5rnDxVYeUoSk_xve0jJ-29" value="Chuyển hướng trang chủ" style="rounded=0;whiteSpace=wrap;html=1;fontSize=13;" vertex="1" parent="1">
          <mxGeometry x="120" y="370" width="100" height="50" as="geometry" />
        </mxCell>
        <mxCell id="-5rnDxVYeUoSk_xve0jJ-30" value="" style="endArrow=classic;html=1;rounded=0;exitX=0.5;exitY=1;exitDx=0;exitDy=0;entryX=0.5;entryY=0;entryDx=0;entryDy=0;" edge="1" parent="1" source="-5rnDxVYeUoSk_xve0jJ-7" target="-5rnDxVYeUoSk_xve0jJ-29">
          <mxGeometry width="50" height="50" relative="1" as="geometry">
            <mxPoint x="260" y="370" as="sourcePoint" />
            <mxPoint x="310" y="320" as="targetPoint" />
          </mxGeometry>
        </mxCell>
        <mxCell id="-5rnDxVYeUoSk_xve0jJ-31" value="" style="endArrow=classic;html=1;rounded=0;exitX=1;exitY=0.5;exitDx=0;exitDy=0;entryX=0.5;entryY=0;entryDx=0;entryDy=0;" edge="1" parent="1" source="-5rnDxVYeUoSk_xve0jJ-4" target="-5rnDxVYeUoSk_xve0jJ-13">
          <mxGeometry width="50" height="50" relative="1" as="geometry">
            <mxPoint x="500" y="250" as="sourcePoint" />
            <mxPoint x="550" y="200" as="targetPoint" />
            <Array as="points">
              <mxPoint x="525" y="240" />
            </Array>
          </mxGeometry>
        </mxCell>
        <mxCell id="-5rnDxVYeUoSk_xve0jJ-32" value="" style="endArrow=classic;html=1;rounded=0;exitX=0.5;exitY=1;exitDx=0;exitDy=0;entryX=1;entryY=0.5;entryDx=0;entryDy=0;" edge="1" parent="1" source="-5rnDxVYeUoSk_xve0jJ-13" target="-5rnDxVYeUoSk_xve0jJ-15">
          <mxGeometry width="50" height="50" relative="1" as="geometry">
            <mxPoint x="570" y="520" as="sourcePoint" />
            <mxPoint x="620" y="470" as="targetPoint" />
            <Array as="points">
              <mxPoint x="525" y="460" />
            </Array>
          </mxGeometry>
        </mxCell>
      </root>
    </mxGraphModel>
  </diagram>
</mxfile>
